<svg id="Layer_1" data-name="Layer 1" xmlns="http://www.w3.org/2000/svg" viewBox="0 0 777.11 532.67"><defs><style>.cls-1{fill:#e7ecf3;stroke:#fff;stroke-linecap:round;stroke-miterlimit:10;stroke-width:2.14px;}</style></defs><path class="cls-1" d="M780.23,431.18a130.18,130.18,0,0,1-125.9,130.09c-1.41.06-2.85.08-4.28.08H149.69v-.53q-5.85.54-11.82.53a132.64,132.64,0,0,1-20.54-263.67s0-.06,0-.1c10.94-.57,21.19-1.28,30.6-2.09a.58.58,0,0,0,.31-1c-8.27-6.73-19.16-12.47-31.93-16.86a.6.6,0,0,1-.41-.57A130.11,130.11,0,0,1,288.64,155.19a.56.56,0,0,1,.38.55,634.58,634.58,0,0,0,3.1,74,1.1,1.1,0,0,0,2.18,0A261.67,261.67,0,0,1,315,155.45c.32-.7.64-1.41,1-2.1.5-1.07,1-2.14,1.54-3.19a213.74,213.74,0,0,1,47.07-62.59l.11-.09A215.77,215.77,0,0,1,510.94,30.82c118.87,0,215.24,95.25,215.24,212.77,0,24.37-1.95,47.54-9.4,69.32l-1.5,3.83-2.1,5.36-8.73,22.28a.09.09,0,0,0,.15.09l18.26-20a2.9,2.9,0,0,1,3.81-.44C760.1,347.56,780.23,386.89,780.23,431.18Z" transform="translate(-4.18 -29.75)"/></svg>