<svg
    xmlns="http://www.w3.org/2000/svg"
    xml:space="preserve"
    width="50px"
    height="50px"
    version="1.1"
    style="shape-rendering:geometricPrecision; text-rendering:geometricPrecision; image-rendering:optimizeQuality; fill-rule:evenodd; clip-rule:evenodd"
    viewBox="0 0 102 197.21"
    xmlns:xlink="http://www.w3.org/1999/xlink"
    xmlns:xodm="http://www.corel.com/coreldraw/odm/2003"
>

<!-- .path {
                stroke-dasharray: 500;
                stroke-dashoffset: 2000;
                animation: dash 5s linear alternate infinite;
            }

            @keyframes dash {
                from {
                    stroke-dashoffset: 2000;
                }
                to {
                    stroke-dashoffset: 0;
                }
            } -->
    <style type="text/css">
        <![CDATA[
            svg {
                margin: 0;
            }

            .fil0 {
                fill: none
            }

            .str1 {
                stroke: #95AAC9;
                stroke-width: 4;
                stroke-miterlimit: 10
            }

            .fil1 {
                fill: #fff;
                stroke: #ccc;
                stroke-width: 1;
                stroke-linejoin: round;
                stroke-dasharray: 3;
            }
        ]]>
    </style>
    <path
        class="fil0 str1 path"
        d="M88.745 49.867c3.138,29.177 -2.258,61.55 -16.188,97.118 -6.006,12.187 -13.345,13.679 -14.245,4.407 -1.691,-17.432 1.45,-33.949 -0.703,-55.445 -1.513,-15.109 -7.618,-18.07 -12.775,-8.369 -5.383,10.125 -6.162,26.632 -9.135,48.613 -2.18,16.117 -14.46,15.347 -16.403,2.764 -3.052,-19.768 -3.239,-52.921 -2.171,-91.271m-4.783 -28.612c0.658,-2.631 1.979,-5.356 3.618,-7.784 1.64,-2.427 3.598,-4.556 5.749,-5.663 2.15,-1.107 4.493,-1.192 6.627,-1.288 2.134,-0.096 4.06,-0.202 6.062,-0.054 2.001,0.149 4.079,0.554 5.607,1.076 1.528,0.521 2.507,1.16 5.047,1.407 2.539,0.248 6.639,0.105 9.84,-0.127 3.2,-0.232 5.499,-0.553 6.969,-1.054 1.469,-0.501 2.108,-1.183 3.843,-1.541 1.735,-0.359 4.567,-0.394 7.24,-0.081 2.672,0.313 5.185,0.975 7.421,2.263 2.235,1.29 4.194,3.206 5.876,5.761 1.682,2.556 3.088,5.75 3.94,9.774 0.851,4.025 1.149,8.88 1.192,12.585 0.042,3.705 -0.17,6.26 -0.623,8.798 -0.453,2.537 -1.147,5.058 -1.823,6.987 -0.676,1.929 -1.335,3.266 -5.247,3.454 -3.912,0.187 -11.077,-0.775 -17.625,-1.03 -6.547,-0.256 -12.478,0.195 -17.317,0.41 -4.839,0.215 -8.586,0.194 -13.133,0.079 -4.547,-0.115 -9.892,-0.323 -13.406,-1.599 -3.513,-1.275 -5.196,-3.617 -6.612,-6.18 -1.416,-2.563 -2.567,-5.347 -3.172,-8.465 -0.605,-3.118 -0.664,-6.571 -0.696,-9.566 -0.031,-2.994 -0.035,-5.531 0.623,-8.162z"
    />
</svg>
