<svg xmlns="http://www.w3.org/2000/svg" width="653.826" height="653.909" viewBox="0 0 653.826 653.909">
  <g id="Group_6874" data-name="Group 6874" transform="translate(10206 5908)">
    <path id="Path_11066" data-name="Path 11066" d="M350.8-705.5c-.2.2-4.6.6-9.8.9-5.2.4-10.8.8-12.5,1.1-1.6.2-4.8.6-7,.9s-5.1.8-6.5,1.1c-2.5.5-6.2,1.1-11,1.9-1.4.2-4.3.9-6.5,1.4-2.2.6-5.1,1.3-6.5,1.5-13.3,2.4-45.1,13.9-65.7,23.8-13.5,6.6-41.9,23.1-44.3,25.9-.3.3-3.4,2.6-7,5.2-25.8,18.4-56.8,50.3-74.5,76.8-2.7,4.1-5.3,7.7-5.6,8s-3.7,5.9-7.6,12.5c-8.5,14.8-20.3,38.9-22.9,47-.2.5-2.2,6.2-4.4,12.5-4,11.1-10.5,34.7-11.6,42-.3,1.9-1.1,7.1-1.9,11.5-3.1,17.9-3.9,28.5-3.9,52,0,10.4.3,22.4.6,26.5,1.2,13,2.5,24.2,3.4,28.1.3,1.3.9,4.6,1.4,7.4,1.7,9.1,2.1,10.9,4.6,20.5,1.4,5.2,2.6,9.9,2.7,10.5a13.822,13.822,0,0,0,1,2.2c.5.7.6,1.3.3,1.3s.2,1.6,1,3.5a24.563,24.563,0,0,1,1.5,4.2,25.123,25.123,0,0,0,1,3.1,15.747,15.747,0,0,1,.9,2.9c0,3.6,17.4,41,25.4,54.8,2,3.3,3.9,6.7,4.3,7.5a6.965,6.965,0,0,0,1.2,2c.3.3,3.3,4.5,6.6,9.5,3.3,4.9,6.3,9.4,6.7,10,3.9,4.9,15.9,19.8,18.3,22.5,3.7,4.4,27,27.7,31,31,7.1,6,18.4,14.9,23.5,18.5,3,2.2,6.1,4.5,6.8,5.2a4.808,4.808,0,0,0,2.8,1.3c.8,0,1.4.4,1.4.8,0,.5,1,1.4,2.3,2.1a56.278,56.278,0,0,1,4.9,2.9c5.8,3.7,24.7,14.1,31.8,17.4,13.5,6.4,28.3,12.6,31.3,13.2.7.2,1.9.6,2.7.9,8.8,3.3,24,7.8,27.3,8,.9.1,1.7.5,1.7,1,0,.4.4.6.8.3.5-.3,3.3.1,6.3.9s7,1.7,8.9,2c1.9.2,4.6.7,6,1,19.3,4.1,57.8,6,81,4,4.7-.4,10.1-.8,12-1a55.855,55.855,0,0,0,7-.9c1.9-.3,5.3-.8,7.5-1.1a40.223,40.223,0,0,0,5.5-1c.8-.2,3.3-.6,5.5-1a40.223,40.223,0,0,0,5.5-1c.8-.2,2.6-.6,4-.9,4-.8,6.2-1.3,11-2.6,2.5-.7,5.2-1.4,6-1.5,3.1-.7,23.4-7.5,29.9-10.1A379.224,379.224,0,0,0,533-95.8c14.9-8.6,35.8-23.1,36.8-25.4a1.441,1.441,0,0,1,1.3-.8c1.2,0,.4.6,17.4-14.5,9-8,7.8-6.8,17.5-17.2a296.5,296.5,0,0,0,34.3-42.8c2.6-3.9,5-7.5,5.5-8,2.4-3.1,12.5-21.3,14.8-26.8.9-2,2-3.7,2.5-3.7s.9-.7.9-1.5c0-1.7,4.1-10.7,5.3-11.6a1.36,1.36,0,0,0,.7-1.3c-.1-.4,1.6-5.3,3.8-10.9,4.7-12.3,11.5-33.2,12.6-38.7.2-1.4,1-4.8,1.6-7.5,1.9-8,3.5-16.6,4.5-23.8.3-2,.7-5.4,1-7.5,2.5-17,2.6-75.8.1-80a43.93,43.93,0,0,1-1-7c-.4-3.4-1.1-8.6-1.7-11.5s-1.2-6.3-1.5-7.7c-.2-1.4-.7-3.6-1-5s-.7-3.2-.9-4c-2.7-13.4-11.8-40.5-18.6-55.7-1.1-2.4-2-4.6-2.1-5-.1-.9-10.5-21-13.6-26.4-6.4-11.4-18.8-30-25.9-38.9-14.5-18.3-25-29.3-47.3-49.4-8.3-7.5-33.2-25.2-44.5-31.7-3.3-1.9-6.9-3.9-8-4.5-8.2-4.7-30.8-15.5-37.4-17.9-2-.7-4.9-1.9-6.6-2.6-1.6-.7-3.2-1.3-3.5-1.4-.3,0-4.8-1.5-10-3.2-12.3-4-19.9-6.2-23.4-6.9-1.5-.2-5.6-1.1-9-1.9a192.74,192.74,0,0,0-23.1-4c-2.2-.3-5.8-.8-8-1.1s-5.8-.8-8-1C393.7-705.1,351.2-705.9,350.8-705.5Zm37.7,29c12.8.9,18.6,1.5,26.5,2.9,1.9.3,5.1.8,7,1.1a112.576,112.576,0,0,1,13.5,2.7c2.2.5,4.7,1.1,5.5,1.3s3.5.9,6,1.6,5,1.3,5.5,1.5c.6.1,3.3,1,6,1.9,2.8,1,5.5,1.9,6,2,1.2.2,2.4.7,13,4.7,15.5,6,46.3,21.5,47.3,24a1.684,1.684,0,0,0,1.4.8c1.5,0,23.6,15.4,29.5,20.5.6.5,3.1,2.6,5.5,4.5,8.1,6.5,39.8,38.9,39.8,40.7a43.276,43.276,0,0,0,4.5,5.7c2.5,2.9,4.5,5.8,4.5,6.5,0,.6.4,1.1.8,1.1s1.6,1.5,2.7,3.2A19.958,19.958,0,0,0,616-546c.6.5,8.6,13.1,12.3,19.5,3.8,6.6,15.7,31.4,18.2,38,5.3,13.7,11.6,34.1,13.1,42,.2,1.1,1,5.1,1.8,9,.8,3.8,1.7,8.8,2,11s.8,5.1,1.1,6.5a81.115,81.115,0,0,1,1,9.5c.3,3.8.8,9,1,11.5,1,10.2.5,41.6-.9,52.5-.3,2.2-.8,6-1.1,8.5a223.959,223.959,0,0,1-4.4,24c-.5,2.5-1.2,5.6-1.5,7-.2,1.4-1.6,6.3-3,11-1.5,4.7-2.8,9.2-3.1,10-2.6,9.3-9.1,25.3-15.6,38.6-3,6-5.6,11.1-6,11.4a22.269,22.269,0,0,0-2,3.8c-.8,1.7-1.7,3.2-2.1,3.2-.5,0-.8.5-.8,1.1,0,3.3-23.1,35.2-34.6,47.9-10.6,11.6-31.2,31.1-35.2,33.4a21.034,21.034,0,0,0-3.7,2.9c-2.5,2.4-17.4,13.1-20.6,14.7a12.385,12.385,0,0,0-2.9,2c-.7.9-17.9,10.8-26.5,15.2-13.9,7.2-44.1,18.7-55.7,21.4-1,.2-2.7.6-3.9.9a37.376,37.376,0,0,0-4.2,1.1,32.468,32.468,0,0,1-4.7,1,8.1,8.1,0,0,0-2.5.4c0,.2-.9.4-2,.5-1.9.3-8,1.4-10,1.9-.5.2-3.2.6-6,1-2.7.4-6,.9-7.3,1.1-16.3,2.5-57.8,2.5-74.6,0-1.7-.3-4.8-.7-6.8-1-6.1-.8-10.1-1.4-12.8-2-1.4-.3-4.1-.8-6-1.2s-3.7-.8-4-.8c-19.6-5-37.3-10.7-49-15.7-7.8-3.4-29.3-14-33-16.3-1.9-1.2-7.3-4.6-12-7.5-4.7-3-8.6-5.7-8.8-6.2a1.653,1.653,0,0,0-1.3-.8c-1.4,0-12.4-8.5-24.8-19-11.5-9.9-31.9-30.9-37-38.2a37.97,37.97,0,0,0-3.7-4.7c-4.6-5-21.4-30.2-21.4-32.1,0-.5-.3-1-.7-1-.5,0-1.3-1-1.9-2.3-.6-1.2-3.8-7.6-7.2-14.2-5.5-11-9.5-19.9-11.7-26.5-.1-.3-.7-1.9-1.4-3.5-3.9-9.4-12-38.9-13.7-50-.4-2.8-.8-5.5-.9-6.1a60.967,60.967,0,0,1-.9-6.6c-.4-3.1-.9-6.6-1.1-7.9-.6-2.7-1.8-24.1-1.8-30.9,0-5.3,1.3-30.2,1.8-34.5.4-4.1,1.6-12.6,2.1-15,.2-1.1.7-4,1-6.4.3-2.5,2.1-10.3,4-17.5s3.6-14,3.9-15c1.6-6.4,10.2-29.6,11.7-31.4.6-.6.8-1.2.5-1.2-.8,0,8.3-18.4,14-28.4,4.9-8.6,15-24.1,19-29.1,1.3-1.7,2.7-3.5,3.1-4,6.6-9.2,11.8-15,27.2-30.5,42.7-42.9,94.9-70.6,154.8-82,16.5-3.1,22.8-3.9,39.7-4.6,7.2-.3,13.1-.7,13.2-.8C366-677.7,378.7-677.2,388.5-676.5Z" transform="translate(-10247.6 -5202.392)"/>
    <g id="Group_6873" data-name="Group 6873" transform="translate(-10083 -5668)">
      <path id="Path_11064" data-name="Path 11064" d="M262.32-24.42l-52.5,159.372a23.64,23.64,0,0,1-7.859,11,19.636,19.636,0,0,1-12.259,4.086,20.106,20.106,0,0,1-12.574-4.086,21.739,21.739,0,0,1-7.544-11L131.867,20.846,94.146,134.952a23.64,23.64,0,0,1-7.859,11,19.636,19.636,0,0,1-12.259,4.086,20.106,20.106,0,0,1-12.574-4.086,21.739,21.739,0,0,1-7.544-11L1.1-24.42H30.963L74.028,106.033,116.779-24.42h29.863l43.065,130.453L232.772-24.42Z" transform="translate(-1.1 24.42)"/>
      <path id="Path_11065" data-name="Path 11065" d="M88.173,150.041A88.155,88.155,0,0,1,54.7,143.6a82.063,82.063,0,0,1-28.134-19.018A86.437,86.437,0,0,1,1.1,62.968,86.437,86.437,0,0,1,26.562,1.356,84.011,84.011,0,0,1,54.7-17.819a86.323,86.323,0,0,1,33.478-6.6q19.489,0,34.578,6.916A64.32,64.32,0,0,1,147.9,2.928q9.116,11.945,11.159,24.676a38.758,38.758,0,0,1-3.615,24.047,42.809,42.809,0,0,1-18.389,18.7q-12.417,6.758-28.448,6.758H30.963a59.7,59.7,0,0,0,20.747,32.063A58.246,58.246,0,0,0,88.173,121.75a57.754,57.754,0,0,0,39.607-15.089l19.175,20.747a88.085,88.085,0,0,1-27.348,16.817A86.663,86.663,0,0,1,88.173,150.041ZM108.606,48.822a31.677,31.677,0,0,0,13.36-2.672q5.815-2.672,8.016-7.073A12.717,12.717,0,0,0,130.3,28.39,34.965,34.965,0,0,0,125.58,19.9Q113.321,3.871,88.173,3.871A55.771,55.771,0,0,0,68.527,7.329a61.541,61.541,0,0,0-16.817,9.43A59.7,59.7,0,0,0,30.963,48.822Z" transform="translate(248.945 24.42)" fill="#2b2e3f"/>
    </g>
  </g>
</svg>
