<svg xmlns="http://www.w3.org/2000/svg" width="75.6" height="69" viewBox="0 0 75.6 69">
  <g id="_4" data-name="4" transform="translate(-33 -31.7)">
    <g id="Group_6753" data-name="Group 6753">
      <rect id="Rectangle_626" data-name="Rectangle 626" width="61.5" height="43.4" transform="translate(33 43)" fill="#0084ff"/>
    </g>
    <g id="Group_6754" data-name="Group 6754">
      <path id="Path_10861" data-name="Path 10861" d="M90.6,36.5a6.512,6.512,0,0,0-6.2-4.8,1.7,1.7,0,0,0,0,3.4,3.1,3.1,0,0,1,0,6.2,1.7,1.7,0,0,0,0,3.4,6.423,6.423,0,0,0,6.2-4.8h14.7v9.7H42.1V39.9H61.8a1.7,1.7,0,0,0,0-3.4H60.4a3.23,3.23,0,0,1,2.5-1.4,3.1,3.1,0,1,1,0,6.2,1.7,1.7,0,0,0,0,3.4,6.38,6.38,0,0,0,6.4-6.4,6.4,6.4,0,0,0-12.6-1.6h-18v64h69.9v-64h-18v-.2ZM42.1,97.1V52.9h63.2V97.1Z" fill="#0e0f0f"/>
      <path id="Path_10862" data-name="Path 10862" d="M70.1,35.1a3.1,3.1,0,0,1,0,6.2,1.7,1.7,0,0,0,0,3.4,6.38,6.38,0,0,0,6.4-6.4,6.445,6.445,0,0,0-6.4-6.4,1.752,1.752,0,0,0-1.7,1.7A1.586,1.586,0,0,0,70.1,35.1Z" fill="#0e0f0f"/>
      <path id="Path_10863" data-name="Path 10863" d="M77.3,35.1a3.1,3.1,0,0,1,0,6.2,1.7,1.7,0,0,0,0,3.4,6.38,6.38,0,0,0,6.4-6.4,6.445,6.445,0,0,0-6.4-6.4,1.752,1.752,0,0,0-1.7,1.7A1.53,1.53,0,0,0,77.3,35.1Z" fill="#0e0f0f"/>
      <path id="Path_10864" data-name="Path 10864" d="M65.4,59.1a1.7,1.7,0,1,0,1.7,1.7A1.752,1.752,0,0,0,65.4,59.1Z" fill="#0e0f0f"/>
      <circle id="Ellipse_153" data-name="Ellipse 153" cx="1.7" cy="1.7" r="1.7" transform="translate(72 59.1)" fill="#0e0f0f"/>
      <circle id="Ellipse_154" data-name="Ellipse 154" cx="1.7" cy="1.7" r="1.7" transform="translate(80.3 59.1)" fill="#0e0f0f"/>
      <path id="Path_10865" data-name="Path 10865" d="M90.3,59.1A1.7,1.7,0,1,0,92,60.8,1.685,1.685,0,0,0,90.3,59.1Z" fill="#0e0f0f"/>
      <circle id="Ellipse_155" data-name="Ellipse 155" cx="1.7" cy="1.7" r="1.7" transform="translate(97 59.1)" fill="#0e0f0f"/>
      <path id="Path_10866" data-name="Path 10866" d="M48.7,68.6a1.7,1.7,0,1,0,1.7,1.7A1.628,1.628,0,0,0,48.7,68.6Z" fill="#0e0f0f"/>
      <path id="Path_10867" data-name="Path 10867" d="M57.1,68.6a1.7,1.7,0,1,0,1.7,1.7A1.752,1.752,0,0,0,57.1,68.6Z" fill="#0e0f0f"/>
      <path id="Path_10868" data-name="Path 10868" d="M65.4,68.6a1.7,1.7,0,1,0,1.7,1.7A1.685,1.685,0,0,0,65.4,68.6Z" fill="#0e0f0f"/>
      <path id="Path_10869" data-name="Path 10869" d="M73.7,68.6a1.7,1.7,0,1,0,1.7,1.7A1.685,1.685,0,0,0,73.7,68.6Z" fill="#0e0f0f"/>
      <path id="Path_10870" data-name="Path 10870" d="M82,68.6a1.7,1.7,0,1,0,1.7,1.7A1.628,1.628,0,0,0,82,68.6Z" fill="#0e0f0f"/>
      <path id="Path_10871" data-name="Path 10871" d="M90.3,68.6A1.7,1.7,0,1,0,92,70.3,1.628,1.628,0,0,0,90.3,68.6Z" fill="#0e0f0f"/>
      <path id="Path_10872" data-name="Path 10872" d="M98.7,68.6a1.7,1.7,0,1,0,1.7,1.7A1.685,1.685,0,0,0,98.7,68.6Z" fill="#0e0f0f"/>
      <path id="Path_10873" data-name="Path 10873" d="M48.7,76.9a1.7,1.7,0,1,0,1.7,1.7A1.685,1.685,0,0,0,48.7,76.9Z" fill="#0e0f0f"/>
      <circle id="Ellipse_156" data-name="Ellipse 156" cx="1.7" cy="1.7" r="1.7" transform="translate(55.4 76.9)" fill="#0e0f0f"/>
      <path id="Path_10874" data-name="Path 10874" d="M65.4,76.9a1.7,1.7,0,1,0,1.7,1.7A1.752,1.752,0,0,0,65.4,76.9Z" fill="#0e0f0f"/>
      <circle id="Ellipse_157" data-name="Ellipse 157" cx="1.7" cy="1.7" r="1.7" transform="translate(72 76.9)" fill="#0e0f0f"/>
      <circle id="Ellipse_158" data-name="Ellipse 158" cx="1.7" cy="1.7" r="1.7" transform="translate(80.3 76.9)" fill="#0e0f0f"/>
      <path id="Path_10875" data-name="Path 10875" d="M90.3,76.9A1.7,1.7,0,1,0,92,78.6,1.685,1.685,0,0,0,90.3,76.9Z" fill="#0e0f0f"/>
      <circle id="Ellipse_159" data-name="Ellipse 159" cx="1.7" cy="1.7" r="1.7" transform="translate(97 76.9)" fill="#0e0f0f"/>
      <path id="Path_10876" data-name="Path 10876" d="M48.7,86.4a1.7,1.7,0,1,0,1.7,1.7A1.685,1.685,0,0,0,48.7,86.4Z" fill="#0e0f0f"/>
      <path id="Path_10877" data-name="Path 10877" d="M57.1,86.4a1.7,1.7,0,1,0,1.7,1.7A1.828,1.828,0,0,0,57.1,86.4Z" fill="#0e0f0f"/>
      <path id="Path_10878" data-name="Path 10878" d="M65.4,86.4a1.7,1.7,0,1,0,1.7,1.7A1.752,1.752,0,0,0,65.4,86.4Z" fill="#0e0f0f"/>
      <path id="Path_10879" data-name="Path 10879" d="M73.7,86.4a1.7,1.7,0,1,0,1.7,1.7A1.752,1.752,0,0,0,73.7,86.4Z" fill="#0e0f0f"/>
      <path id="Path_10880" data-name="Path 10880" d="M82,86.4a1.7,1.7,0,1,0,1.7,1.7A1.685,1.685,0,0,0,82,86.4Z" fill="#0e0f0f"/>
    </g>
  </g>
</svg>
