<svg xmlns="http://www.w3.org/2000/svg" width="62.2" height="75.9" viewBox="0 0 62.2 75.9">
  <g id="_2" data-name="2" transform="translate(-40 -30.8)">
    <g id="Group_6750" data-name="Group 6750">
      <rect id="Rectangle_625" data-name="Rectangle 625" width="48" height="50" transform="translate(40 30.8)" fill="#0084ff"/>
    </g>
    <g id="Group_6751" data-name="Group 6751">
      <path id="Path_10848" data-name="Path 10848" d="M72,85.4H65.5a1.9,1.9,0,0,0,0,3.8H72a1.9,1.9,0,0,0,0-3.8Z"/>
      <path id="Path_10849" data-name="Path 10849" d="M56.8,80.6H72a1.9,1.9,0,0,0,0-3.8H56.8a1.9,1.9,0,0,0-1.9,1.9A1.837,1.837,0,0,0,56.8,80.6Z"/>
      <path id="Path_10850" data-name="Path 10850" d="M100.3,33.2a1.9,1.9,0,0,0-1.9,1.9v6.8H50V35.1a1.9,1.9,0,0,0-3.8,0v69.6a1.9,1.9,0,1,0,3.8,0V98H98.4v6.8a1.9,1.9,0,0,0,1.9,1.9,1.967,1.967,0,0,0,1.9-1.9V35.1A1.839,1.839,0,0,0,100.3,33.2ZM98.4,71.8V94.1H50V71.8ZM50,68V45.7H98.4V68Z"/>
      <path id="Path_10851" data-name="Path 10851" d="M91.6,50.6h-12a1.9,1.9,0,0,0-1.9,1.9v8.7a1.9,1.9,0,0,0,1.9,1.9h12a1.9,1.9,0,0,0,1.9-1.9V52.5A1.839,1.839,0,0,0,91.6,50.6Zm-1.9,3.8v4.9H81.6V54.4Z"/>
      <path id="Path_10852" data-name="Path 10852" d="M79.6,89.3h12a1.9,1.9,0,0,0,1.9-1.9V78.7a1.9,1.9,0,0,0-1.9-1.9h-12a1.9,1.9,0,0,0-1.9,1.9v8.7A1.967,1.967,0,0,0,79.6,89.3Zm1.9-3.9V80.5h8.1v4.9Z"/>
      <path id="Path_10853" data-name="Path 10853" d="M72,59.3H65.5a1.9,1.9,0,0,0,0,3.8H72a1.9,1.9,0,0,0,0-3.8Z"/>
      <path id="Path_10854" data-name="Path 10854" d="M72,50.6H56.8a1.9,1.9,0,1,0,0,3.8H72a1.9,1.9,0,0,0,1.9-1.9A1.839,1.839,0,0,0,72,50.6Z"/>
    </g>
  </g>
</svg>
