<svg xmlns="http://www.w3.org/2000/svg" width="76.8" height="82" viewBox="0 0 76.8 82">
  <g id="_6" data-name="6" transform="translate(-33 -28.7)">
    <path id="Path_10885" data-name="Path 10885" d="M78.4,79.1H37.9A4.908,4.908,0,0,1,33,74.2V33.6a4.908,4.908,0,0,1,4.9-4.9H78.4a4.908,4.908,0,0,1,4.9,4.9V74.1A4.809,4.809,0,0,1,78.4,79.1Z" fill="#0084ff"/>
    <g id="Group_6760" data-name="Group 6760">
      <g id="Group_6758" data-name="Group 6758">
        <path id="Path_10886" data-name="Path 10886" d="M107.9,110.7a1.612,1.612,0,0,1-1.3-.6l-15-14.8-4.4,7a1.918,1.918,0,0,1-1.8.9,2.107,2.107,0,0,1-1.6-1.3L73.9,72.4a1.918,1.918,0,0,1,.5-2,2.083,2.083,0,0,1,2-.5l29.7,9.8a1.96,1.96,0,0,1,1.3,1.6,1.828,1.828,0,0,1-.9,1.8l-9.1,5.7a1.887,1.887,0,0,1-2-3.2l5.6-3.5L78.8,74.7,86,96.8l3.5-5.6a1.973,1.973,0,0,1,3-.4l16.7,16.5a1.819,1.819,0,0,1,0,2.7A1.574,1.574,0,0,1,107.9,110.7Z" fill="#0e0f0f"/>
      </g>
      <g id="Group_6759" data-name="Group 6759">
        <path id="Path_10887" data-name="Path 10887" d="M73.6,92.2H44.1a5.716,5.716,0,0,1-5.9-5.8V39.9a5.649,5.649,0,0,1,5.9-5.8H90.3a5.716,5.716,0,0,1,5.9,5.8V69.7a1.9,1.9,0,0,1-3.8,0V39.9a1.823,1.823,0,0,0-2-2H44.1a1.853,1.853,0,0,0-2,2V86.3a1.823,1.823,0,0,0,2,2H73.6a1.9,1.9,0,0,1,1.9,1.9A1.988,1.988,0,0,1,73.6,92.2Z" fill="#0e0f0f"/>
      </g>
    </g>
  </g>
</svg>
