<svg xmlns="http://www.w3.org/2000/svg" width="95.301" height="70.3" viewBox="0 0 95.301 70.3">
  <g id="_3" data-name="3" transform="translate(-27.6 -34.4)">
    <path id="Path_10855" data-name="Path 10855" d="M87.6,104.2a1.668,1.668,0,0,1-1.4.5H41.9a1.578,1.578,0,0,1-1.3-.5,1.611,1.611,0,0,1-.1-1.4c.2-.8,5.6-19.8,5.9-27.6.3-7.9-5.6-27-5.8-27.8a1.339,1.339,0,0,1,.1-1.4,1.578,1.578,0,0,1,1.3-.5H86.3a1.578,1.578,0,0,1,1.3.5,1.611,1.611,0,0,1,.1,1.4c-.6,2.2-6,21.4-5.9,27.7s5.4,25.4,6,27.5C87.9,103.4,87.9,103.9,87.6,104.2Z" fill="#0084ff"/>
    <g id="Group_6752" data-name="Group 6752">
      <path id="Path_10856" data-name="Path 10856" d="M96.1,67.2c-.1-5.9,5.7-26.5,5.8-26.7a4.593,4.593,0,0,0-.7-4.3,4.768,4.768,0,0,0-4-1.8H52.9a4.768,4.768,0,0,0-4,1.8,4.623,4.623,0,0,0-.6,4.3c.1.2,5.9,19.3,5.7,26.7S48.3,93.8,48.2,94a4.874,4.874,0,0,0,.6,4.3,4.768,4.768,0,0,0,4,1.8H97.1a4.768,4.768,0,0,0,4-1.8,4.944,4.944,0,0,0,.7-4.3C101.9,93.7,96.3,73.1,96.1,67.2ZM51.9,94.9c.2-.8,5.7-19.8,5.9-27.7.3-8-5.6-27.1-5.8-27.9a1.078,1.078,0,0,1,0-1,1.414,1.414,0,0,1,1-.3H97.3c.5,0,.9.1,1,.3a1.349,1.349,0,0,1,0,1.1c-.6,2.2-6.1,21.4-5.9,27.8.1,6.3,5.4,25.4,6,27.6.1.5.1.9-.1,1.1h0a1.6,1.6,0,0,1-1.1.4H52.9c-.5,0-.9-.1-1-.3C51.7,95.8,51.7,95.4,51.9,94.9Z" fill="#0e0f0f"/>
      <path id="Path_10857" data-name="Path 10857" d="M42.2,36.4a1.853,1.853,0,0,0-2.3-1.3,1.673,1.673,0,0,0-1.1.9,2.2,2.2,0,0,0-.2,1.4c3.3,11.4,6.7,25.3,6.6,30.1-.2,6.1-5.1,24.7-6.6,30.2a1.7,1.7,0,0,0,.2,1.4,2.445,2.445,0,0,0,1.1.9c.2,0,.3.1.5.1a1.921,1.921,0,0,0,1.8-1.4c1.5-5.6,6.5-24.6,6.7-31.1C49.1,61.2,44.3,43.6,42.2,36.4Z" fill="#0e0f0f"/>
      <path id="Path_10858" data-name="Path 10858" d="M105,67.5c-.2-4.8,3.3-18.7,6.6-30.1a1.7,1.7,0,0,0-.2-1.4,2.012,2.012,0,0,0-1.1-.9,1.853,1.853,0,0,0-2.3,1.3c-2.1,7.2-6.9,24.8-6.7,31.2.2,6.5,5.2,25.4,6.7,31.1a1.921,1.921,0,0,0,1.8,1.4.9.9,0,0,0,.5-.1,1.853,1.853,0,0,0,1.3-2.3C110.1,92.2,105.2,73.6,105,67.5Z" fill="#0e0f0f"/>
      <path id="Path_10859" data-name="Path 10859" d="M43,67.2a2.127,2.127,0,0,0-.7-1.5l-5.9-4.5a2.3,2.3,0,0,0-1.4-.4,1.855,1.855,0,0,0-1.2.7,1.808,1.808,0,0,0,.4,2.6l1.5,1.1H29.5a1.9,1.9,0,0,0-1.9,1.9A1.839,1.839,0,0,0,29.5,69h6.3l-1.5,1.1a1.9,1.9,0,0,0-.4,2.6,1.8,1.8,0,0,0,1.5.7,1.5,1.5,0,0,0,1.1-.4l5.9-4.4A2.026,2.026,0,0,0,43,67.2Z" fill="#0e0f0f"/>
      <path id="Path_10860" data-name="Path 10860" d="M120.9,65.3h-6.2l1.5-1.1a1.9,1.9,0,0,0,.4-2.6,1.855,1.855,0,0,0-1.2-.7,1.792,1.792,0,0,0-1.4.4l-5.9,4.5a1.683,1.683,0,0,0-.7,1.5,2.127,2.127,0,0,0,.7,1.5l5.9,4.4a2.1,2.1,0,0,0,1.1.4,2.127,2.127,0,0,0,1.5-.7,1.9,1.9,0,0,0-.4-2.6l-1.5-1.1H121a1.9,1.9,0,0,0,1.9-1.9A2.074,2.074,0,0,0,120.9,65.3Z" fill="#0e0f0f"/>
    </g>
  </g>
</svg>
