<svg xmlns="http://www.w3.org/2000/svg" width="35" height="30" viewBox="0 0 35 30">
  <g id="Group_6856" data-name="Group 6856" transform="translate(233 -634)">
    <path id="Path" d="M5.185,25.052A5.144,5.144,0,0,1,0,19.949V5.1A5.144,5.144,0,0,1,5.185,0h24.63A5.144,5.144,0,0,1,35,5.1V19.949a5.144,5.144,0,0,1-5.185,5.1H24.407a2.614,2.614,0,0,0-1.833.747l-3.7,3.64a1.967,1.967,0,0,1-2.75,0l-3.7-3.64a2.614,2.614,0,0,0-1.833-.747Z" transform="translate(-233 634)" fill="#616b75" fill-rule="evenodd"/>
    <path id="Path_11036" data-name="Path 11036" d="M329.846,332.94l2.885-2.882a.63.63,0,0,0,0-.889l-.476-.474a.631.631,0,0,0-.889,0l-.013.012-2.86,2.857-.012.013a.629.629,0,0,0,0,.888l.476.475a.626.626,0,0,0,.163.117h.564A.639.639,0,0,0,329.846,332.94Z" transform="translate(-541.545 320.27)" fill="#fff" fill-rule="evenodd"/>
    <path id="Path_11037" data-name="Path 11037" d="M283.38,283.676l2.86-2.857-1.251-1.25c-1.874-1.062-3.391,1.372-2.974,2.743Z" transform="translate(-496.432 368.158)" fill="#fff" fill-rule="evenodd"/>
    <path id="Path_11038" data-name="Path 11038" d="M12.412,333.059h.564a.639.639,0,0,0,.163-.117l.476-.475a.629.629,0,0,0,0-.888l-.013-.013-2.86-2.857-.012-.012a.632.632,0,0,0-.89,0l-.475.474a.63.63,0,0,0,0,.889l2.885,2.882A.642.642,0,0,0,12.412,333.059Z" transform="translate(-230.959 320.269)" fill="#fff" fill-rule="evenodd"/>
    <path id="Path_11039" data-name="Path 11039" d="M73.827,113.489l1.767-1.764.744-.743.234-.234a.664.664,0,1,0-.94-.939l.236-.236a.664.664,0,0,0-.94-.939l.236-.236a.664.664,0,0,0-.94-.939l.236-.235a.663.663,0,0,0-.577-1.124.659.659,0,0,0-.364.185l-.942.941.03.03.005.005a.664.664,0,1,1-.94.939.665.665,0,1,1-.941.94.664.664,0,0,1-.94.939.664.664,0,1,1-.94.939l-.036-.036-1.252,1.25,2.86,2.857,1.2-1.194c.339-.35,1.132-.044,1.745-.169A.886.886,0,0,0,73.827,113.489Z" transform="translate(-287.781 536.744)" fill="#fff" fill-rule="evenodd"/>
    <path id="Path_11040" data-name="Path 11040" d="M170.006,99.606a.664.664,0,0,0,.94-.939l-.005-.005a1.8,1.8,0,0,1-1.208-1.207.665.665,0,0,0-.941.939l.236.236Z" transform="translate(-386.115 545.339)" fill="#fff" fill-rule="evenodd"/>
    <path id="Path_11041" data-name="Path 11041" d="M143.422,143.328a.665.665,0,1,0,.941-.94l-.978-.976a.664.664,0,0,0-.94.939l.236.235Z" transform="translate(-360.471 502.557)" fill="#fff" fill-rule="evenodd"/>
    <path id="Path_11042" data-name="Path 11042" d="M116.832,187.041a.664.664,0,1,0,.94-.939l-.742-.741a.665.665,0,1,0-.94.94l.472.471Z" transform="translate(-334.822 459.783)" fill="#fff" fill-rule="evenodd"/>
    <path id="Path_11043" data-name="Path 11043" d="M98.839,239.334a.664.664,0,1,0,.94-.939l-.27-.269a.665.665,0,0,0-.941.939l.235.234Z" transform="translate(-317.769 408.428)" fill="#fff" fill-rule="evenodd"/>
    <path id="Path_11044" data-name="Path 11044" d="M212.129,93.72l.942-.941a.659.659,0,0,1,.364-.185l-1.819-.344c-.359-.068-.7-.07-.664.294a1.8,1.8,0,0,0,1.208,1.207Z" transform="translate(-427.334 550.25)" fill="#fff" fill-rule="evenodd"/>
    <path id="Path_11045" data-name="Path 11045" d="M245.305,1.739a.269.269,0,0,0,.269-.269V.269a.269.269,0,0,0-.538,0v1.2A.269.269,0,0,0,245.305,1.739Z" transform="translate(-460.51 640)" fill="#fff"/>
    <path id="Path_11046" data-name="Path 11046" d="M14.27,89.206l-.476-.474a.9.9,0,0,0-1.067-.152l-.9-.9.044-.044a.934.934,0,0,0,0-1.319.924.924,0,0,0-.469-.253.94.94,0,0,0,.037-.262.932.932,0,0,0-.742-.913.94.94,0,0,0,.037-.262A.931.931,0,0,0,10,83.718a.932.932,0,0,0-1-1.189l-1.776-.336A.959.959,0,0,0,6.4,82.3a.491.491,0,0,0-.041.042.936.936,0,0,0-.982.216.926.926,0,0,0-.273.66.941.941,0,0,0,.037.262.932.932,0,0,0-.741.912.939.939,0,0,0,.037.263A.933.933,0,0,0,3.862,86.1.933.933,0,0,0,3.5,87.641l.043.043-.9.895a.9.9,0,0,0-1.018.176l-.476.475a.9.9,0,0,0,0,1.27l.594.593a.269.269,0,1,0,.38-.381l-.594-.593a.361.361,0,0,1,0-.508l.476-.475a.36.36,0,0,1,.439-.054.271.271,0,0,0,.034.041.267.267,0,0,0,.077.054L5.292,91.9a.265.265,0,0,0,.13.131.36.36,0,0,1-.015.492L4.932,93a.362.362,0,0,1-.509,0l-.594-.594a.269.269,0,0,0-.381.381l.594.594a.9.9,0,0,0,1.27,0l.476-.475A.9.9,0,0,0,5.913,91.8l1.009-1.007,0,0c.116-.119.437-.1.748-.075a3.873,3.873,0,0,0,.708,0l1.1,1.1a.9.9,0,0,0,.153,1.066l.476.475a.9.9,0,0,0,1.27,0l2.885-2.882a.9.9,0,0,0,0-1.27ZM7.126,82.722l1.168.221-.7.7a1.7,1.7,0,0,1-.419-.3,1.238,1.238,0,0,1-.4-.612h0a.235.235,0,0,1,0-.027.912.912,0,0,1,.348.023Zm-1.365.219a.4.4,0,0,1,.5-.048,1.925,1.925,0,0,0,.54.832,1.994,1.994,0,0,0,.776.481.4.4,0,0,1-.6.5h0L5.761,83.5a.4.4,0,0,1,0-.558Zm-.7,1.175a.4.4,0,0,1,.559,0l.978.976a.4.4,0,0,1-.56.559h0l-.742-.741,0,0-.232-.232a.4.4,0,0,1,0-.558Zm-.7,1.175a.4.4,0,0,1,.558,0l.744.744a.4.4,0,0,1-.56.558l-.27-.269h0l-.472-.471a.4.4,0,0,1,0-.559ZM3.884,86.7a.4.4,0,0,1,.56,0l.27.27a.4.4,0,0,1-.56.557L4.12,87.5h0l-.233-.232a.4.4,0,0,1,0-.558Zm5.486,3.06a.269.269,0,0,0-.381,0L8.75,90c-.228.228-.64.2-1.039.171a1.423,1.423,0,0,0-1.171.236l-.992.99-2.48-2.476.878-.876a.934.934,0,0,0,1.421-.8s0,0,0-.007h.007a.931.931,0,0,0,.933-.932s0,0,0-.007h.007a.93.93,0,0,0,.933-.939h.007a.934.934,0,0,0,.8-1.419l.769-.769a.4.4,0,0,1,.2-.108l.024,0a.394.394,0,0,1,.335.67l-.234.233,0,0-.27.269a.269.269,0,0,0,.38.381l.235-.235h0l.036-.035a.4.4,0,0,1,.559,0,.4.4,0,0,1,0,.558l-.236.236h0l-.27.269a.269.269,0,0,0,.38.381l.271-.27a.4.4,0,0,1,.559.558l-.47.47a.269.269,0,1,0,.381.381l.23-.23,0,0a.4.4,0,0,1,.559.558l-.234.234h0l-.371.371a.269.269,0,0,0,.38.381l.182-.181.871.87L9.842,91.411l-.888-.887a1.058,1.058,0,0,0,.177-.142l.239-.239a.269.269,0,0,0,0-.381Zm4.52.333L11,92.977a.362.362,0,0,1-.509,0L10.02,92.5a.36.36,0,0,1,0-.507L12.9,89.113a.362.362,0,0,1,.509,0l.476.474a.361.361,0,0,1,0,.508Z" transform="translate(-222.894 560.043)" fill="#616b75"/>
    <path id="Path_11047" data-name="Path 11047" d="M82.783,4.183a.269.269,0,0,0,.38-.381l-.981-.979a.269.269,0,0,0-.38.381Z" transform="translate(-301.563 637.329)" fill="#fff"/>
    <path id="Path_11048" data-name="Path 11048" d="M371.92,4.263a.268.268,0,0,0,.19-.079l.98-.979a.269.269,0,0,0-.38-.381l-.98.979a.269.269,0,0,0,.19.46Z" transform="translate(-583.74 637.328)" fill="#fff"/>
    <path id="Path_11049" data-name="Path 11049" d="M60.008,430.274a.269.269,0,0,0,0,.381h0a.269.269,0,1,0,0-.381Z" transform="translate(-280.353 221.306)" fill="#616b75"/>
    <path id="Path_11050" data-name="Path 11050" d="M332.779,332.656a.269.269,0,1,0-.121-.51h0a.269.269,0,0,0,.122.509Z" transform="translate(-545.645 316.76)" fill="#616b75"/>
  </g>
</svg>
