<svg xmlns="http://www.w3.org/2000/svg" width="35" height="30" viewBox="0 0 35 30">
  <g id="Group_6854" data-name="Group 6854" transform="translate(270 -634)">
    <path id="Path" d="M5.185,25.052A5.144,5.144,0,0,1,0,19.949V5.1A5.144,5.144,0,0,1,5.185,0h24.63A5.144,5.144,0,0,1,35,5.1V19.949a5.144,5.144,0,0,1-5.185,5.1H24.407a2.614,2.614,0,0,0-1.833.747l-3.7,3.64a1.967,1.967,0,0,1-2.75,0l-3.7-3.64a2.614,2.614,0,0,0-1.833-.747Z" transform="translate(-270 634)" fill="#616b75" fill-rule="evenodd"/>
    <g id="portfolio_1_" data-name="portfolio (1)" transform="translate(-258.987 641)">
      <path id="Path_11033" data-name="Path 11033" d="M211,240h2.2v.733H211Zm0,0" transform="translate(-205.842 -234.133)" fill="#fff"/>
      <path id="Path_11034" data-name="Path 11034" d="M10.154,82.118H8.091v.367a.367.367,0,0,1-.367.367H4.791a.367.367,0,0,1-.367-.367v-.367H2.362a1.1,1.1,0,0,1-1.043-.752L0,77.41v8.008a1.1,1.1,0,0,0,1.1,1.1H11.416a1.1,1.1,0,0,0,1.1-1.1V77.411L11.2,81.366a1.1,1.1,0,0,1-1.043.752Zm0,0" transform="translate(0 -75.518)" fill="#fff"/>
      <path id="Path_11035" data-name="Path 11035" d="M32.9,0H29.969a1.1,1.1,0,0,0-1.1,1.1v.367h-3.06l1.383,4.149a.367.367,0,0,0,.348.251H29.6V5.5a.367.367,0,0,1,.367-.367H32.9a.367.367,0,0,1,.367.367v.367h2.063a.367.367,0,0,0,.348-.251l1.383-4.149H34V1.1A1.1,1.1,0,0,0,32.9,0ZM29.6,1.467V1.1a.367.367,0,0,1,.367-.367H32.9a.367.367,0,0,1,.367.367v.367Zm0,0" transform="translate(-25.178)" fill="#fff"/>
    </g>
  </g>
</svg>
