<svg id="fb-b" xmlns="http://www.w3.org/2000/svg" width="25.345" height="46.879" viewBox="0 0 25.345 46.879">
  <path id="Path_2394" data-name="Path 2394" d="M46.468.01,40.389,0c-6.83,0-11.243,4.528-11.243,11.537v5.319H23.033a.956.956,0,0,0-.956.956V25.52a.956.956,0,0,0,.956.956h6.112V45.923a.956.956,0,0,0,.956.956h7.975a.956.956,0,0,0,.956-.956V26.476h7.147a.956.956,0,0,0,.956-.956l0-7.707a.957.957,0,0,0-.956-.956H39.032V12.347c0-2.167.516-3.268,3.34-3.268h4.1a.956.956,0,0,0,.955-.956V.966A.956.956,0,0,0,46.468.01Z" transform="translate(-22.077)"/>
</svg>
