<svg id="ig-b" xmlns="http://www.w3.org/2000/svg" width="46.879" height="46.879" viewBox="0 0 46.879 46.879">
  <g id="Group_1672" data-name="Group 1672">
    <g id="Group_1671" data-name="Group 1671">
      <path id="Path_2395" data-name="Path 2395" d="M32.229,0H14.65A14.651,14.651,0,0,0,0,14.65v17.58a14.651,14.651,0,0,0,14.65,14.65h17.58a14.651,14.651,0,0,0,14.65-14.65V14.65A14.651,14.651,0,0,0,32.229,0ZM42.484,32.229A10.266,10.266,0,0,1,32.229,42.484H14.65A10.266,10.266,0,0,1,4.395,32.229V14.65A10.266,10.266,0,0,1,14.65,4.395h17.58A10.266,10.266,0,0,1,42.484,14.65Z"/>
    </g>
  </g>
  <g id="Group_1674" data-name="Group 1674" transform="translate(11.72 11.72)">
    <g id="Group_1673" data-name="Group 1673">
      <path id="Path_2396" data-name="Path 2396" d="M139.72,128a11.72,11.72,0,1,0,11.72,11.72A11.72,11.72,0,0,0,139.72,128Zm0,19.045a7.325,7.325,0,1,1,7.325-7.325A7.335,7.335,0,0,1,139.72,147.045Z" transform="translate(-128 -128)"/>
    </g>
  </g>
  <g id="Group_1676" data-name="Group 1676" transform="translate(34.477 9.279)">
    <g id="Group_1675" data-name="Group 1675">
      <ellipse id="Ellipse_3" data-name="Ellipse 3" cx="1.562" cy="1.562" rx="1.562" ry="1.562"/>
    </g>
  </g>
</svg>
