<svg id="ig" xmlns="http://www.w3.org/2000/svg" width="46.88" height="46.88" viewBox="0 0 46.88 46.88" fill="#fff">
  <g id="Group_1672" data-name="Group 1672">
    <g id="Group_1671" data-name="Group 1671">
      <path id="Path_2395" data-name="Path 2395" d="M32.229,0H14.65A14.651,14.651,0,0,0,0,14.649V32.23A14.651,14.651,0,0,0,14.649,46.88H32.23A14.651,14.651,0,0,0,46.88,32.231V14.65A14.651,14.651,0,0,0,32.23,0ZM42.484,32.229A10.266,10.266,0,0,1,32.229,42.484H14.65A10.266,10.266,0,0,1,4.4,32.229V14.65A10.266,10.266,0,0,1,14.65,4.4H32.23A10.266,10.266,0,0,1,42.484,14.65Z"/>
    </g>
  </g>
  <g id="Group_1674" data-name="Group 1674" transform="translate(11.72 11.72)">
    <g id="Group_1673" data-name="Group 1673">
      <path id="Path_2396" data-name="Path 2396" d="M139.72,128a11.72,11.72,0,1,0,11.72,11.72A11.72,11.72,0,0,0,139.72,128Zm0,19.045a7.325,7.325,0,1,1,7.325-7.325,7.325,7.325,0,0,1-7.325,7.325Z" transform="translate(-128 -128)"/>
    </g>
  </g>
  <g id="Group_1676" data-name="Group 1676" transform="translate(34.477 9.279)">
    <g id="Group_1675" data-name="Group 1675">
      <circle id="Ellipse_3" data-name="Ellipse 3" cx="1.562" cy="1.562" r="1.562" transform="translate(0 0)"/>
    </g>
  </g>
</svg>
