<svg xmlns="http://www.w3.org/2000/svg" width="387" height="136.02" viewBox="0 0 387 136.02">
  <g id="Group_1972" data-name="Group 1972" transform="translate(11618 3269)">
    <rect id="Rectangle_126" data-name="Rectangle 126" width="387" height="136" transform="translate(-11618 -3269)" fill="#fff" opacity="0"/>
    <g id="Group_1971" data-name="Group 1971" transform="translate(-11618.001 -3240.093)">
      <path id="Path_2902" data-name="Path 2902" d="M117.606-24.42,94.193,46.661a10.544,10.544,0,0,1-3.5,4.907,8.758,8.758,0,0,1-5.468,1.823,8.968,8.968,0,0,1-5.608-1.823,9.7,9.7,0,0,1-3.365-4.907L59.423-4.231,42.6,46.661a10.544,10.544,0,0,1-3.505,4.907,8.758,8.758,0,0,1-5.468,1.823,8.968,8.968,0,0,1-5.608-1.823,9.7,9.7,0,0,1-3.365-4.907L1.1-24.42H14.419L33.626,33.763,52.694-24.42H66.013L85.22,33.763,104.427-24.42Z" transform="translate(-1.099 24.42)" fill="#fff"/>
      <path id="Path_2903" data-name="Path 2903" d="M39.935,53.391A39.318,39.318,0,0,1,25,50.517a36.6,36.6,0,0,1-12.548-8.482A38.552,38.552,0,0,1,1.1,14.556,38.552,38.552,0,0,1,12.456-12.924,37.469,37.469,0,0,1,25-21.476,38.5,38.5,0,0,1,39.935-24.42a36.639,36.639,0,0,1,15.422,3.084,28.688,28.688,0,0,1,11.216,9.113A24.5,24.5,0,0,1,71.55-1.217,17.286,17.286,0,0,1,69.938,9.508a19.093,19.093,0,0,1-8.2,8.342,26.113,26.113,0,0,1-12.688,3.014H14.419a26.625,26.625,0,0,0,9.253,14.3,25.978,25.978,0,0,0,16.263,5.608A25.759,25.759,0,0,0,57.6,34.043L66.153,43.3a39.286,39.286,0,0,1-12.2,7.5A38.652,38.652,0,0,1,39.935,53.391ZM49.048,8.247a14.128,14.128,0,0,0,5.958-1.192A7.08,7.08,0,0,0,58.582,3.9a5.672,5.672,0,0,0,.14-4.767,15.6,15.6,0,0,0-2.1-3.785Q51.151-11.8,39.935-11.8a24.874,24.874,0,0,0-8.762,1.542,27.448,27.448,0,0,0-7.5,4.206,26.625,26.625,0,0,0-9.253,14.3Z" transform="translate(110.424 24.42)" fill="#fff"/>
      <path id="Path_2904" data-name="Path 2904" d="M61.386-12.924A38.591,38.591,0,0,1,72.721,14.556a38.5,38.5,0,0,1-2.944,14.931,40.091,40.091,0,0,1-8.412,12.688,40.319,40.319,0,0,1-12.618,8.412,38.342,38.342,0,0,1-15,2.944,38.186,38.186,0,0,1-18.927-4.852V82.693H2.2V3.34A27.126,27.126,0,0,1,4.509-7.947a25.78,25.78,0,0,1,6.646-8.9,32.722,32.722,0,0,1,10.284-5.608A38.861,38.861,0,0,1,33.962-24.42q1.68,0,3.359.14t3.357.421A38.035,38.035,0,0,1,61.386-12.924ZM33.8,40.913A25.84,25.84,0,0,0,44.07,38.869,26.242,26.242,0,0,0,58.063,24.845,26,26,0,0,0,60.1,14.556,26,26,0,0,0,58.063,4.266,26.242,26.242,0,0,0,44.07-9.758,25.84,25.84,0,0,0,33.8-11.8q-9,0-14.344,4.651A12.765,12.765,0,0,0,14.818,3.28V32.738A26.512,26.512,0,0,0,23.537,38.8,25.757,25.757,0,0,0,33.8,40.913Z" transform="translate(189.302 24.42)" fill="#d6d6d6"/>
      <path id="Path_2905" data-name="Path 2905" d="M2.2,53.391V-1.567q0-10.235,7.29-16.4a26.035,26.035,0,0,1,8.692-4.767A34.382,34.382,0,0,1,29.118-24.42h.28a34.1,34.1,0,0,1,17.385,4.627L40.475-8.858A21.587,21.587,0,0,0,29.4-11.8h-.421a21.726,21.726,0,0,0-6.449.911A13.622,13.622,0,0,0,17.622-8.3a8.349,8.349,0,0,0-2.8,6.73V53.391Z" transform="translate(268.961 24.42)" fill="#d6d6d6"/>
      <path id="Path_2906" data-name="Path 2906" d="M39.935,53.391A39.318,39.318,0,0,1,25,50.517a36.6,36.6,0,0,1-12.548-8.482A36.6,36.6,0,0,1,3.974,29.487,39.318,39.318,0,0,1,1.1,14.556,39.318,39.318,0,0,1,3.974-.376a36.6,36.6,0,0,1,8.482-12.548A37.469,37.469,0,0,1,25-21.476,38.5,38.5,0,0,1,39.935-24.42,37.987,37.987,0,0,1,54.8-21.476a39.2,39.2,0,0,1,12.618,8.552A38.552,38.552,0,0,1,78.771,14.556,38.552,38.552,0,0,1,67.415,42.035,38.258,38.258,0,0,1,54.8,50.517,38.792,38.792,0,0,1,39.935,53.391Zm0-65.193A25.071,25.071,0,0,0,29.7-9.7a27.209,27.209,0,0,0-8.342,5.678,26.219,26.219,0,0,0-5.608,8.342,25.814,25.814,0,0,0-2.033,10.235A25.814,25.814,0,0,0,15.751,24.79,26.133,26.133,0,0,0,29.7,38.74a26.779,26.779,0,0,0,20.469,0A26.133,26.133,0,0,0,64.12,24.79a25.814,25.814,0,0,0,2.033-10.235A25.814,25.814,0,0,0,64.12,4.321a26.219,26.219,0,0,0-5.608-8.342A27.209,27.209,0,0,0,50.17-9.7,25.071,25.071,0,0,0,39.935-11.8Z" transform="translate(307.978 24.42)" fill="#d6d6d6"/>
    </g>
  </g>
</svg>
